<?xml version="1.0" encoding="UTF-8"?>
<svg width="77px" height="30px" viewBox="0 0 77 30" version="1.1" xmlns="http://www.w3.org/2000/svg" xmlns:xlink="http://www.w3.org/1999/xlink">
    <!-- Generator: Sketch 50.2 (55047) - http://www.bohemiancoding.com/sketch -->
    <title>slite</title>
    <desc>Created with Sketch.</desc>
    <defs></defs>
    <g id="Page-1" stroke="none" stroke-width="1" fill="none" fill-rule="evenodd">
        <g id="slite" fill-rule="nonzero">
            <path d="M55.9093178,19.4675541 C55.9093178,19.3926789 55.9093178,19.3178037 55.9093178,19.2424293 C55.9093178,12.7991681 60.3079867,7.98668885 66.4327787,7.98668885 C73.0926789,7.98668885 76.874376,12.3913478 76.874376,19.3647255 C76.874376,19.6487521 76.874376,19.9327787 76.8603993,20.2163062 L61.6357737,20.2163062 C61.8144759,21.3499667 62.3920133,22.3825957 63.2645591,23.1283527 C64.1366057,23.8740599 65.2467554,24.2838769 66.3943428,24.2840266 L66.3943428,29.9500832 C60.6039933,29.9500832 55.9118136,25.2579035 55.9118136,19.4675541 L55.9093178,19.4675541 Z M48.9209651,8.48585691 L54.9109817,8.48585691 L54.9109817,14.4758735 L48.9209651,14.4758735 L48.9209651,29.9500832 L42.9309484,29.9500832 L42.9309484,0 L48.9209651,0 L48.9209651,8.48585691 Z M9.90349418,0 C15.6938436,0 18.0793677,4.1875208 18.7777038,6.28103161 L13.9707155,8.45640599 C13.3547421,7.10216306 12.2865225,5.33660566 9.77770383,5.33660566 C7.80599002,5.33660566 6.65540765,6.52712146 6.65540765,8.08702163 C6.65540765,12.8490849 19.1450915,12.1512479 19.1450915,21.0589018 C19.1450915,26.1084859 15.5296173,29.8028286 9.53161398,29.8028286 C3.36888519,29.8028286 0.821630616,25.4925125 0,23.1524126 L4.88884692,20.7718802 C5.66955075,22.6602329 7.2718802,24.4252912 9.86006656,24.4252912 C11.9965058,24.4252912 13.2698835,23.3166389 13.2698835,21.4697171 C13.2698835,16.5434276 0.863061564,17.3645591 0.863061564,8.16938436 C0.863560732,3.32545757 4.39667221,0 9.9014975,0 L9.90349418,0 Z M21.9658902,29.9500832 L21.9658902,0 L27.9559068,0 L27.9559068,29.9500832 L21.9658902,29.9500832 Z M32.4484193,29.9500832 L32.4484193,8.48585691 L38.4384359,8.48585691 L38.4384359,29.9500832 L32.4484193,29.9500832 Z M62.1489185,16.2229617 L70.6347754,16.2229617 C70.253411,14.0890183 68.5921797,12.7287854 66.3918469,12.7287854 C64.137604,12.7287854 62.6011647,14.2008319 62.1469218,16.2229617 L62.1489185,16.2229617 Z" id="Shape" fill="#151526"></path>
            <polygon id="Shape" fill="#AAE7ED" points="38.4364393 0.000487468552 32.4464226 0.000487468552 32.4464226 5.99051581 38.4364393 5.99051581"></polygon>
            <polygon id="Shape" fill="#FFE697" points="76.8723794 23.9605657 70.8823627 23.9605657 70.8823627 29.9505824 76.8723794 29.9505824"></polygon>
        </g>
    </g>
</svg>