<svg width="79" height="78" viewBox="0 0 79 78" xmlns="http://www.w3.org/2000/svg">
<g fill="#FFE697" clip-path="url(#clip0)">
<path fill-rule="evenodd" clip-rule="evenodd" d="M17.746 7.08706C19.7062 7.08706 21.2952 5.50056 21.2952 3.54353C21.2952 1.58649 19.7062 0 17.746 0C15.7859 0 14.1968 1.58649 14.1968 3.54353C14.1968 5.50056 15.7859 7.08706 17.746 7.08706Z" />
<path fill-rule="evenodd" clip-rule="evenodd" d="M46.1394 7.08706C48.0996 7.08706 49.6886 5.50056 49.6886 3.54353C49.6886 1.58649 48.0996 0 46.1394 0C44.1793 0 42.5903 1.58649 42.5903 3.54353C42.5903 5.50056 44.1793 7.08706 46.1394 7.08706Z" />
<path fill-rule="evenodd" clip-rule="evenodd" d="M74.5326 7.08706C76.4928 7.08706 78.0818 5.50056 78.0818 3.54353C78.0818 1.58649 76.4928 0 74.5326 0C72.5725 0 70.9835 1.58649 70.9835 3.54353C70.9835 5.50056 72.5725 7.08706 74.5326 7.08706Z" />
<path fill-rule="evenodd" clip-rule="evenodd" d="M31.9424 21.2612C33.9025 21.2612 35.4915 19.6748 35.4915 17.7177C35.4915 15.7607 33.9025 14.1742 31.9424 14.1742C29.9822 14.1742 28.3932 15.7607 28.3932 17.7177C28.3932 19.6748 29.9822 21.2612 31.9424 21.2612Z" />
<path fill-rule="evenodd" clip-rule="evenodd" d="M60.336 21.2612C62.2962 21.2612 63.8852 19.6748 63.8852 17.7177C63.8852 15.7607 62.2962 14.1742 60.336 14.1742C58.3759 14.1742 56.7869 15.7607 56.7869 17.7177C56.7869 19.6748 58.3759 21.2612 60.336 21.2612Z" />
<path fill-rule="evenodd" clip-rule="evenodd" d="M3.54918 21.2612C5.50933 21.2612 7.09835 19.6748 7.09835 17.7177C7.09835 15.7607 5.50933 14.1742 3.54918 14.1742C1.58902 14.1742 0 15.7607 0 17.7177C0 19.6748 1.58902 21.2612 3.54918 21.2612Z" />
<path fill-rule="evenodd" clip-rule="evenodd" d="M17.746 35.4352C19.7062 35.4352 21.2952 33.8487 21.2952 31.8917C21.2952 29.9346 19.7062 28.3481 17.746 28.3481C15.7859 28.3481 14.1968 29.9346 14.1968 31.8917C14.1968 33.8487 15.7859 35.4352 17.746 35.4352Z" />
<path fill-rule="evenodd" clip-rule="evenodd" d="M46.1394 35.4352C48.0996 35.4352 49.6886 33.8487 49.6886 31.8917C49.6886 29.9346 48.0996 28.3481 46.1394 28.3481C44.1793 28.3481 42.5903 29.9346 42.5903 31.8917C42.5903 33.8487 44.1793 35.4352 46.1394 35.4352Z" />
<path fill-rule="evenodd" clip-rule="evenodd" d="M74.5326 35.4352C76.4928 35.4352 78.0818 33.8487 78.0818 31.8917C78.0818 29.9346 76.4928 28.3481 74.5326 28.3481C72.5725 28.3481 70.9835 29.9346 70.9835 31.8917C70.9835 33.8487 72.5725 35.4352 74.5326 35.4352Z" />
<path fill-rule="evenodd" clip-rule="evenodd" d="M31.9424 49.6095C33.9025 49.6095 35.4915 48.023 35.4915 46.0659C35.4915 44.1089 33.9025 42.5224 31.9424 42.5224C29.9822 42.5224 28.3932 44.1089 28.3932 46.0659C28.3932 48.023 29.9822 49.6095 31.9424 49.6095Z" />
<path fill-rule="evenodd" clip-rule="evenodd" d="M60.336 49.6095C62.2962 49.6095 63.8852 48.023 63.8852 46.0659C63.8852 44.1089 62.2962 42.5224 60.336 42.5224C58.3759 42.5224 56.7869 44.1089 56.7869 46.0659C56.7869 48.023 58.3759 49.6095 60.336 49.6095Z" />
<path fill-rule="evenodd" clip-rule="evenodd" d="M3.54918 49.6095C5.50933 49.6095 7.09835 48.023 7.09835 46.0659C7.09835 44.1089 5.50933 42.5224 3.54918 42.5224C1.58902 42.5224 0 44.1089 0 46.0659C0 48.023 1.58902 49.6095 3.54918 49.6095Z" />
<path fill-rule="evenodd" clip-rule="evenodd" d="M17.746 63.7835C19.7062 63.7835 21.2952 62.197 21.2952 60.2399C21.2952 58.2829 19.7062 56.6964 17.746 56.6964C15.7859 56.6964 14.1968 58.2829 14.1968 60.2399C14.1968 62.197 15.7859 63.7835 17.746 63.7835Z" />
<path fill-rule="evenodd" clip-rule="evenodd" d="M46.1394 63.7835C48.0996 63.7835 49.6886 62.197 49.6886 60.2399C49.6886 58.2829 48.0996 56.6964 46.1394 56.6964C44.1793 56.6964 42.5903 58.2829 42.5903 60.2399C42.5903 62.197 44.1793 63.7835 46.1394 63.7835Z" />
<path fill-rule="evenodd" clip-rule="evenodd" d="M74.5326 63.7835C76.4928 63.7835 78.0818 62.197 78.0818 60.2399C78.0818 58.2829 76.4928 56.6964 74.5326 56.6964C72.5725 56.6964 70.9835 58.2829 70.9835 60.2399C70.9835 62.197 72.5725 63.7835 74.5326 63.7835Z" />
<path fill-rule="evenodd" clip-rule="evenodd" d="M31.9424 77.9576C33.9025 77.9576 35.4915 76.3711 35.4915 74.4141C35.4915 72.457 33.9025 70.8705 31.9424 70.8705C29.9822 70.8705 28.3932 72.457 28.3932 74.4141C28.3932 76.3711 29.9822 77.9576 31.9424 77.9576Z" />
<path fill-rule="evenodd" clip-rule="evenodd" d="M60.336 77.9576C62.2962 77.9576 63.8852 76.3711 63.8852 74.4141C63.8852 72.457 62.2962 70.8705 60.336 70.8705C58.3759 70.8705 56.7869 72.457 56.7869 74.4141C56.7869 76.3711 58.3759 77.9576 60.336 77.9576Z" />
<path fill-rule="evenodd" clip-rule="evenodd" d="M3.54918 77.9576C5.50933 77.9576 7.09835 76.3711 7.09835 74.4141C7.09835 72.457 5.50933 70.8705 3.54918 70.8705C1.58902 70.8705 0 72.457 0 74.4141C0 76.3711 1.58902 77.9576 3.54918 77.9576Z" />
</g>
<defs>
<clipPath id="clip0">
<rect fill="currentColor" width="79" height="78"/>
</clipPath>
</defs>
</svg>
